<svg width="173" height="132" viewBox="0 0 173 132" fill="none" xmlns="http://www.w3.org/2000/svg">
<path d="M145.952 31.048C149.365 31.1333 155.125 37.1067 163.232 48.968L163.488 51.144C163.488 53.5333 157.643 55.368 145.952 56.648L145.568 57.032V57.544C147.36 65.224 149.237 69.064 151.2 69.064H152.736C155.467 69.064 159.605 66.12 165.152 60.232H165.92C167.627 60.232 168.949 61.4693 169.888 63.944C169.888 65.992 166.304 69.5333 159.136 74.568C157.259 75.6773 154.997 76.488 152.352 77C145.44 77 140.619 70.5147 137.888 57.544C133.963 56.9467 132 55.3253 132 52.68C132 50.8027 133.451 49.5653 136.352 48.968V49.48L137.632 48.968V45.768C137.632 35.9547 140.405 31.048 145.952 31.048ZM146.72 40.264H145.568L145.056 45V48.968H145.568C150.347 48.7973 152.736 48.2853 152.736 47.432C150.517 44.104 148.512 41.7147 146.72 40.264Z" fill="#118AB2"/>
<path d="M63.368 27.592C67.1227 27.592 69 29.0853 69 32.072L67.848 34.504L67.08 57.928C67.08 68.5093 69.2133 75.08 73.48 77.64L73.736 79.56C73.48 82.0347 72.328 83.272 70.28 83.272H69.512C63.112 78.92 59.912 72.264 59.912 63.304H59.016C55.6027 72.8613 51.464 77.64 46.6 77.64C42.0773 76.36 39.816 72.9893 39.816 67.528C39.816 55.496 44.6373 43.5067 54.28 31.56C57.5227 28.9147 60.552 27.592 63.368 27.592ZM47.88 62.408L47.368 65.992V68.424H48.648C55.048 52.4667 58.248 42.7387 58.248 39.24H57.736C52.7867 44.7867 49.5013 52.5093 47.88 62.408Z" fill="#FFD166"/>
<path d="M79.48 32.2C80.0773 30.0667 81.4427 29 83.576 29C85.7093 29 87.1173 31.1333 87.8 35.4H88.312L94.2 34.12C96.9307 34.12 99.576 36.68 102.136 41.8H102.648C106.403 35.912 110.243 32.968 114.168 32.968C122.531 34.504 126.712 39.9653 126.712 49.352L126.968 53.832L125.816 79.688V82.12C125.816 84.2533 124.493 85.4907 121.848 85.832C119.203 85.832 117.88 82.7173 117.88 76.488L119.416 53.32C119.416 44.7867 117.411 40.52 113.4 40.52C111.096 40.52 108.323 46.1093 105.08 57.288C103.459 70.088 102.136 76.488 101.112 76.488C99.6613 76.488 98.936 76.7867 98.936 77.384C96.2907 77.0427 94.968 75.6773 94.968 73.288L96.632 57.8C96.376 47.1333 95.3093 41.8 93.432 41.8H93.048C90.9147 43.4213 89.848 46.6213 89.848 51.4V58.184L89.336 77.768C88.7387 79.9013 87.416 80.968 85.368 80.968C83.576 80.968 82.424 79.4747 81.912 76.488L81.4 61.384L82.168 48.968C81.656 42.568 80.76 36.9787 79.48 32.2Z" fill="#06D6A0"/>
<path d="M9.528 38.6C12.5147 38.6 14.5627 45.1707 15.672 58.312C17.1227 64.3707 18.1893 67.4 18.872 67.4H19.64C21.7733 62.024 22.84 56.6907 22.84 51.4L22.072 42.568C23.0107 40.264 24.3333 39.112 26.04 39.112C29.1973 39.112 30.776 44.7013 30.776 55.88C32.6533 67.4853 33.592 78.28 33.592 88.264V94.28C33.592 112.627 28.3867 125 17.976 131.4L15.16 131.912C10.296 131.912 5.77333 127.389 1.592 118.344L0.44 110.664V110.28C0.44 104.648 2.01867 101.832 5.176 101.832L8.376 103.88L7.992 111.944C7.992 115.869 9.99733 119.837 14.008 123.848H15.672C20.3653 123.848 23.8213 114.888 26.04 96.968L26.296 89.544C26.2107 80.9253 25.8693 75.4213 25.272 73.032C21.8587 76.0187 19.1707 77.512 17.208 77.512C12.856 77.512 8.97333 65.864 5.56 42.568L5.176 42.312C5.176 40.3493 6.62667 39.112 9.528 38.6Z" fill="#EF476F"/>
</svg>
