<svg width="194" height="105" viewBox="0 0 194 105" fill="none" xmlns="http://www.w3.org/2000/svg">
<path d="M145.952 4.04799C149.365 4.13333 155.125 10.1067 163.232 21.968L163.488 24.144C163.488 26.5333 157.643 28.368 145.952 29.648L145.568 30.032V30.544C147.36 38.224 149.237 42.064 151.2 42.064H152.736C155.467 42.064 159.605 39.12 165.152 33.232H165.92C167.627 33.232 168.949 34.4693 169.888 36.944C169.888 38.992 166.304 42.5333 159.136 47.568C157.259 48.6773 154.997 49.488 152.352 50C145.44 50 140.619 43.5147 137.888 30.544C133.963 29.9467 132 28.3253 132 25.68C132 23.8027 133.451 22.5653 136.352 21.968V22.48L137.632 21.968V18.768C137.632 8.95466 140.405 4.04799 145.952 4.04799ZM146.72 13.264H145.568L145.056 18V21.968H145.568C150.347 21.7973 152.736 21.2853 152.736 20.432C150.517 17.104 148.512 14.7147 146.72 13.264Z" fill="#118AB2"/>
<path d="M63.368 0.591995C67.1227 0.591995 69 2.08533 69 5.07199L67.848 7.50399L67.08 30.928C67.08 41.5093 69.2133 48.08 73.48 50.64L73.736 52.56C73.48 55.0347 72.328 56.272 70.28 56.272H69.512C63.112 51.92 59.912 45.264 59.912 36.304H59.016C55.6027 45.8613 51.464 50.64 46.6 50.64C42.0773 49.36 39.816 45.9893 39.816 40.528C39.816 28.496 44.6373 16.5067 54.28 4.55999C57.5227 1.91466 60.552 0.591995 63.368 0.591995ZM47.88 35.408L47.368 38.992V41.424H48.648C55.048 25.4667 58.248 15.7387 58.248 12.24H57.736C52.7867 17.7867 49.5013 25.5093 47.88 35.408Z" fill="#FFD166"/>
<path d="M79.48 5.19999C80.0773 3.06666 81.4427 1.99999 83.576 1.99999C85.7093 1.99999 87.1173 4.13333 87.8 8.39999H88.312L94.2 7.12C96.9307 7.12 99.576 9.68 102.136 14.8H102.648C106.403 8.91199 110.243 5.96799 114.168 5.96799C122.531 7.504 126.712 12.9653 126.712 22.352L126.968 26.832L125.816 52.688V55.12C125.816 57.2533 124.493 58.4907 121.848 58.832C119.203 58.832 117.88 55.7173 117.88 49.488L119.416 26.32C119.416 17.7867 117.411 13.52 113.4 13.52C111.096 13.52 108.323 19.1093 105.08 30.288C103.459 43.088 102.136 49.488 101.112 49.488C99.6613 49.488 98.936 49.7867 98.936 50.384C96.2907 50.0427 94.968 48.6773 94.968 46.288L96.632 30.8C96.376 20.1333 95.3093 14.8 93.432 14.8H93.048C90.9147 16.4213 89.848 19.6213 89.848 24.4V31.184L89.336 50.768C88.7387 52.9013 87.416 53.968 85.368 53.968C83.576 53.968 82.424 52.4747 81.912 49.488L81.4 34.384L82.168 21.968C81.656 15.568 80.76 9.97866 79.48 5.19999Z" fill="#06D6A0"/>
<path d="M9.528 11.6C12.5147 11.6 14.5627 18.1707 15.672 31.312C17.1227 37.3707 18.1893 40.4 18.872 40.4H19.64C21.7733 35.024 22.84 29.6907 22.84 24.4L22.072 15.568C23.0107 13.264 24.3333 12.112 26.04 12.112C29.1973 12.112 30.776 17.7013 30.776 28.88C32.6533 40.4853 33.592 51.28 33.592 61.264V67.28C33.592 85.6267 28.3867 98 17.976 104.4L15.16 104.912C10.296 104.912 5.77334 100.389 1.592 91.344L0.440002 83.664V83.28C0.440002 77.648 2.01867 74.832 5.176 74.832L8.376 76.88L7.992 84.944C7.992 88.8693 9.99734 92.8373 14.008 96.848H15.672C20.3653 96.848 23.8213 87.888 26.04 69.968L26.296 62.544C26.2107 53.9253 25.8693 48.4213 25.272 46.032C21.8587 49.0187 19.1707 50.512 17.208 50.512C12.856 50.512 8.97334 38.864 5.56 15.568L5.176 15.312C5.176 13.3493 6.62667 12.112 9.528 11.6Z" fill="#EF476F"/>
<path d="M42.02 70C42.4867 70 42.8067 71.0267 42.98 73.08C43.2067 74.0267 43.3733 74.5 43.48 74.5H43.6C43.9333 73.66 44.1 72.8267 44.1 72L43.98 70.62C44.1267 70.26 44.3333 70.08 44.6 70.08C45.0933 70.08 45.34 70.9533 45.34 72.7C45.6333 74.5133 45.78 76.2 45.78 77.76V78.7C45.78 81.5667 44.9667 83.5 43.34 84.5L42.9 84.58C42.14 84.58 41.4333 83.8733 40.78 82.46L40.6 81.26V81.2C40.6 80.32 40.8467 79.88 41.34 79.88L41.84 80.2L41.78 81.46C41.78 82.0733 42.0933 82.6933 42.72 83.32H42.98C43.7133 83.32 44.2533 81.92 44.6 79.12L44.64 77.96C44.6267 76.6133 44.5733 75.7533 44.48 75.38C43.9467 75.8467 43.5267 76.08 43.22 76.08C42.54 76.08 41.9333 74.26 41.4 70.62L41.34 70.58C41.34 70.2733 41.5667 70.08 42.02 70Z" fill="white"/>
<path d="M48.473 68.82C49.0063 68.8333 49.9063 69.7667 51.173 71.62L51.213 71.96C51.213 72.3333 50.2996 72.62 48.473 72.82L48.413 72.88V72.96C48.693 74.16 48.9863 74.76 49.293 74.76H49.533C49.9596 74.76 50.6063 74.3 51.473 73.38H51.593C51.8596 73.38 52.0663 73.5733 52.213 73.96C52.213 74.28 51.653 74.8333 50.533 75.62C50.2396 75.7933 49.8863 75.92 49.473 76C48.393 76 47.6396 74.9867 47.213 72.96C46.5996 72.8667 46.293 72.6133 46.293 72.2C46.293 71.9067 46.5196 71.7133 46.973 71.62V71.7L47.173 71.62V71.12C47.173 69.5867 47.6063 68.82 48.473 68.82ZM48.593 70.26H48.413L48.333 71V71.62H48.413C49.1596 71.5933 49.533 71.5133 49.533 71.38C49.1863 70.86 48.873 70.4867 48.593 70.26Z" fill="white"/>
<path d="M55.3416 63.86C55.7149 63.94 55.9016 64.1267 55.9016 64.42L55.7816 65.3V65.56C55.7816 66.1467 55.8482 66.7667 55.9816 67.42H56.0216C57.5682 66.9533 58.5282 66.72 58.9016 66.72C59.2882 66.8267 59.4816 67.02 59.4816 67.3C59.4816 67.7533 59.0216 67.98 58.1016 67.98L56.0216 68.72C56.0216 70.52 56.2149 72.9667 56.6016 76.06C56.5216 76.42 56.3282 76.6 56.0216 76.6H55.9816C55.5149 76.6 55.2816 76 55.2816 74.8C55.1082 73.9067 54.9616 71.9667 54.8416 68.98H54.4816C53.2282 68.9 52.6016 68.6067 52.6016 68.1C52.6016 67.9533 52.7416 67.7733 53.0216 67.56H53.2216L54.1416 67.8H54.7816L54.6016 65.3C54.6016 64.34 54.8482 63.86 55.3416 63.86Z" fill="white"/>
<path d="M71.37 68.28C71.9567 68.28 72.25 68.5133 72.25 68.98L72.07 69.36L71.95 73.02C71.95 74.6733 72.2833 75.7 72.95 76.1L72.99 76.4C72.95 76.7867 72.77 76.98 72.45 76.98H72.33C71.33 76.3 70.83 75.26 70.83 73.86H70.69C70.1567 75.3533 69.51 76.1 68.75 76.1C68.0433 75.9 67.69 75.3733 67.69 74.52C67.69 72.64 68.4433 70.7667 69.95 68.9C70.4567 68.4867 70.93 68.28 71.37 68.28ZM68.95 73.72L68.87 74.28V74.66H69.07C70.07 72.1667 70.57 70.6467 70.57 70.1H70.49C69.7167 70.9667 69.2033 72.1733 68.95 73.72Z" fill="white"/>
<path d="M76.0698 69.26C77.2032 69.3533 77.7698 69.9067 77.7698 70.92L77.8098 71.18L77.7698 74.3C77.7698 74.66 77.9765 75.1467 78.3898 75.76V75.8C78.2832 76.1867 78.0898 76.38 77.8098 76.38C76.9832 76.0333 76.5698 75.3 76.5698 74.18V73.92L76.5098 73.88L76.5698 73.8V73.76L76.6298 71C76.6298 70.6133 76.4632 70.42 76.1298 70.42H75.8898C75.2232 70.6867 74.8898 72.1467 74.8898 74.8C74.8898 75.72 74.6565 76.18 74.1898 76.18C73.8298 76.18 73.6432 75.9533 73.6298 75.5V73.5C73.6298 70.9133 73.8565 69.62 74.3098 69.62L74.5098 69.56L74.9298 69.62C75.2898 69.38 75.6698 69.26 76.0698 69.26Z" fill="white"/>
<path d="M82.2167 68.46C83.2034 68.46 83.9501 69.1933 84.4567 70.66L84.5367 71.08C84.5367 72.5067 83.8701 73.9667 82.5367 75.46C82.0034 75.9533 81.4634 76.2 80.9167 76.2C80.1167 76.2 79.5501 75.74 79.2167 74.82C79.0967 74.3933 79.0367 74.02 79.0367 73.7V73.46C79.0367 71.3533 79.8034 69.7533 81.3367 68.66C81.6034 68.5267 81.8967 68.46 82.2167 68.46ZM80.2167 73.66C80.2167 74.5667 80.4501 75.02 80.9167 75.02C81.8901 75.02 82.6967 73.7733 83.3367 71.28V70.9C83.1101 70.0733 82.6901 69.66 82.0767 69.66C81.8367 69.66 81.7167 69.8267 81.7167 70.16C81.7167 70.3867 81.4501 70.5667 80.9167 70.7C80.4501 71.4867 80.2167 72.4733 80.2167 73.66Z" fill="white"/>
<path d="M87.783 63.86C88.1563 63.94 88.343 64.1267 88.343 64.42L88.223 65.3V65.56C88.223 66.1467 88.2896 66.7667 88.423 67.42H88.463C90.0096 66.9533 90.9696 66.72 91.343 66.72C91.7296 66.8267 91.923 67.02 91.923 67.3C91.923 67.7533 91.463 67.98 90.543 67.98L88.463 68.72C88.463 70.52 88.6563 72.9667 89.043 76.06C88.963 76.42 88.7696 76.6 88.463 76.6H88.423C87.9563 76.6 87.723 76 87.723 74.8C87.5496 73.9067 87.403 71.9667 87.283 68.98H86.923C85.6696 68.9 85.043 68.6067 85.043 68.1C85.043 67.9533 85.183 67.7733 85.463 67.56H85.663L86.583 67.8H87.223L87.043 65.3C87.043 64.34 87.2896 63.86 87.783 63.86Z" fill="white"/>
<path d="M93.3723 64.96C93.7457 64.96 93.9324 65.4133 93.9324 66.32L94.1723 69.76H94.2523L95.2523 69.38C96.3723 69.38 97.0523 70.5267 97.2923 72.82C97.3857 73.4733 97.4323 74.4333 97.4323 75.7V77.32C97.4323 77.8267 97.2457 78.08 96.8723 78.08H96.7923C96.4323 78.0267 96.2523 77.8333 96.2523 77.5V75.62C96.2523 72.6067 95.959 70.94 95.3723 70.62H95.2523C94.8523 70.62 94.559 71.2333 94.3723 72.46V73.58C94.3723 75.58 94.2057 76.58 93.8723 76.58L93.4923 76.62C93.119 76.62 92.9324 76.0667 92.9324 74.96C92.9724 73.7867 93.0523 72.8267 93.1723 72.08L92.7523 65.5C92.7523 65.1533 92.959 64.9733 93.3723 64.96Z" fill="white"/>
<path d="M100.172 68.82C100.706 68.8333 101.606 69.7667 102.872 71.62L102.912 71.96C102.912 72.3333 101.999 72.62 100.172 72.82L100.112 72.88V72.96C100.392 74.16 100.686 74.76 100.992 74.76H101.232C101.659 74.76 102.306 74.3 103.172 73.38H103.292C103.559 73.38 103.766 73.5733 103.912 73.96C103.912 74.28 103.352 74.8333 102.232 75.62C101.939 75.7933 101.586 75.92 101.172 76C100.092 76 99.3389 74.9867 98.9122 72.96C98.2989 72.8667 97.9922 72.6133 97.9922 72.2C97.9922 71.9067 98.2189 71.7133 98.6722 71.62V71.7L98.8722 71.62V71.12C98.8722 69.5867 99.3055 68.82 100.172 68.82ZM100.292 70.26H100.112L100.032 71V71.62H100.112C100.859 71.5933 101.232 71.5133 101.232 71.38C100.886 70.86 100.572 70.4867 100.292 70.26Z" fill="white"/>
<path d="M107.321 68.12C108.161 68.12 108.661 68.7067 108.821 69.88V70.06C108.821 71.3533 108.154 72.54 106.821 73.62C107.594 74.38 108.947 74.76 110.881 74.76C111.174 74.8533 111.321 75.06 111.321 75.38C111.321 75.74 111.087 75.92 110.621 75.92C109.314 75.92 107.941 75.5867 106.501 74.92V75.5C106.501 76.8733 106.207 77.56 105.621 77.56C105.207 77.56 105.001 76.7667 105.001 75.18V73.62L104.941 73.06L105.081 72.42L104.941 70.5V70.42C104.941 70.06 105.127 69.8133 105.501 69.68C106.021 68.64 106.627 68.12 107.321 68.12ZM106.321 72.5C106.707 72.5 107.141 71.8067 107.621 70.42V69.56L107.381 69.3H107.201C106.614 69.7 106.321 70.7667 106.321 72.5Z" fill="white"/>
<path d="M119.845 69C119.938 68.6667 120.151 68.5 120.485 68.5C120.818 68.5 121.038 68.8333 121.145 69.5H121.225L122.145 69.3C122.571 69.3 122.985 69.7 123.385 70.5H123.465C124.051 69.58 124.651 69.12 125.265 69.12C126.571 69.36 127.225 70.2133 127.225 71.68L127.265 72.38L127.085 76.42V76.8C127.085 77.1333 126.878 77.3267 126.465 77.38C126.051 77.38 125.845 76.8933 125.845 75.92L126.085 72.3C126.085 70.9667 125.771 70.3 125.145 70.3C124.785 70.3 124.351 71.1733 123.845 72.92C123.591 74.92 123.385 75.92 123.225 75.92C122.998 75.92 122.885 75.9667 122.885 76.06C122.471 76.0067 122.265 75.7933 122.265 75.42L122.525 73C122.485 71.3333 122.318 70.5 122.025 70.5H121.965C121.631 70.7533 121.465 71.2533 121.465 72V73.06L121.385 76.12C121.291 76.4533 121.085 76.62 120.765 76.62C120.485 76.62 120.305 76.3867 120.225 75.92L120.145 73.56L120.265 71.62C120.185 70.62 120.045 69.7467 119.845 69Z" fill="white"/>
<path d="M130.172 68.82C130.706 68.8333 131.606 69.7667 132.872 71.62L132.912 71.96C132.912 72.3333 131.999 72.62 130.172 72.82L130.112 72.88V72.96C130.392 74.16 130.686 74.76 130.992 74.76H131.232C131.659 74.76 132.306 74.3 133.172 73.38H133.292C133.559 73.38 133.766 73.5733 133.912 73.96C133.912 74.28 133.352 74.8333 132.232 75.62C131.939 75.7933 131.586 75.92 131.172 76C130.092 76 129.339 74.9867 128.912 72.96C128.299 72.8667 127.992 72.6133 127.992 72.2C127.992 71.9067 128.219 71.7133 128.672 71.62V71.7L128.872 71.62V71.12C128.872 69.5867 129.306 68.82 130.172 68.82ZM130.292 70.26H130.112L130.032 71V71.62H130.112C130.859 71.5933 131.232 71.5133 131.232 71.38C130.886 70.86 130.572 70.4867 130.292 70.26Z" fill="white"/>
<path d="M135.001 69C135.094 68.6667 135.307 68.5 135.641 68.5C135.974 68.5 136.194 68.8333 136.301 69.5H136.381L137.301 69.3C137.727 69.3 138.141 69.7 138.541 70.5H138.621C139.207 69.58 139.807 69.12 140.421 69.12C141.727 69.36 142.381 70.2133 142.381 71.68L142.421 72.38L142.241 76.42V76.8C142.241 77.1333 142.034 77.3267 141.621 77.38C141.207 77.38 141.001 76.8933 141.001 75.92L141.241 72.3C141.241 70.9667 140.927 70.3 140.301 70.3C139.941 70.3 139.507 71.1733 139.001 72.92C138.747 74.92 138.541 75.92 138.381 75.92C138.154 75.92 138.041 75.9667 138.041 76.06C137.627 76.0067 137.421 75.7933 137.421 75.42L137.681 73C137.641 71.3333 137.474 70.5 137.181 70.5H137.121C136.787 70.7533 136.621 71.2533 136.621 72V73.06L136.541 76.12C136.447 76.4533 136.241 76.62 135.921 76.62C135.641 76.62 135.461 76.3867 135.381 75.92L135.301 73.56L135.421 71.62C135.341 70.62 135.201 69.7467 135.001 69Z" fill="white"/>
<path d="M145.328 68.82C145.862 68.8333 146.762 69.7667 148.028 71.62L148.068 71.96C148.068 72.3333 147.155 72.62 145.328 72.82L145.268 72.88V72.96C145.548 74.16 145.842 74.76 146.148 74.76H146.388C146.815 74.76 147.462 74.3 148.328 73.38H148.448C148.715 73.38 148.922 73.5733 149.068 73.96C149.068 74.28 148.508 74.8333 147.388 75.62C147.095 75.7933 146.742 75.92 146.328 76C145.248 76 144.495 74.9867 144.068 72.96C143.455 72.8667 143.148 72.6133 143.148 72.2C143.148 71.9067 143.375 71.7133 143.828 71.62V71.7L144.028 71.62V71.12C144.028 69.5867 144.462 68.82 145.328 68.82ZM145.448 70.26H145.268L145.188 71V71.62H145.268C146.015 71.5933 146.388 71.5133 146.388 71.38C146.042 70.86 145.728 70.4867 145.448 70.26Z" fill="white"/>
<path d="M159.176 68.82C159.709 68.8333 160.609 69.7667 161.876 71.62L161.916 71.96C161.916 72.3333 161.003 72.62 159.176 72.82L159.116 72.88V72.96C159.396 74.16 159.689 74.76 159.996 74.76H160.236C160.663 74.76 161.309 74.3 162.176 73.38H162.296C162.563 73.38 162.769 73.5733 162.916 73.96C162.916 74.28 162.356 74.8333 161.236 75.62C160.943 75.7933 160.589 75.92 160.176 76C159.096 76 158.343 74.9867 157.916 72.96C157.303 72.8667 156.996 72.6133 156.996 72.2C156.996 71.9067 157.223 71.7133 157.676 71.62V71.7L157.876 71.62V71.12C157.876 69.5867 158.309 68.82 159.176 68.82ZM159.296 70.26H159.116L159.036 71V71.62H159.116C159.863 71.5933 160.236 71.5133 160.236 71.38C159.889 70.86 159.576 70.4867 159.296 70.26Z" fill="white"/>
<path d="M168.385 65.02C168.611 65.02 168.818 65.2333 169.005 65.66L168.125 71.22V72.78C168.125 74.4067 168.378 75.22 168.885 75.22C169.218 75.38 169.385 75.5933 169.385 75.86C169.385 76.1667 169.118 76.3467 168.585 76.4C167.998 76.4 167.538 75.86 167.205 74.78H167.005C166.511 75.86 165.911 76.4 165.205 76.4C164.378 76.4 163.878 75.7733 163.705 74.52C163.705 73.0667 164.678 71.5267 166.625 69.9C167.011 69.9 167.205 69.36 167.205 68.28C167.498 66.1067 167.891 65.02 168.385 65.02ZM164.885 74.36V74.9L165.205 75.22H165.325C165.751 75.22 166.251 73.9333 166.825 71.36H166.705C165.491 72.5733 164.885 73.5733 164.885 74.36Z" fill="white"/>
<path d="M170.331 65.58C170.838 65.6867 171.091 65.9133 171.091 66.26C170.958 66.6333 170.744 66.82 170.451 66.82C169.958 66.7267 169.711 66.48 169.711 66.08C169.844 65.7467 170.051 65.58 170.331 65.58ZM171.091 68.38C171.304 68.38 171.484 68.5733 171.631 68.96L171.451 70.38V71.32C171.451 72.4133 171.638 73.8467 172.011 75.62C171.878 75.8733 171.651 76 171.331 76C170.784 76 170.424 74.4 170.251 71.2V70.5C170.251 69.0867 170.531 68.38 171.091 68.38Z" fill="white"/>
<path d="M175.4 63.86C175.773 63.94 175.96 64.1267 175.96 64.42L175.84 65.3V65.56C175.84 66.1467 175.907 66.7667 176.04 67.42H176.08C177.627 66.9533 178.587 66.72 178.96 66.72C179.347 66.8267 179.54 67.02 179.54 67.3C179.54 67.7533 179.08 67.98 178.16 67.98L176.08 68.72C176.08 70.52 176.273 72.9667 176.66 76.06C176.58 76.42 176.387 76.6 176.08 76.6H176.04C175.573 76.6 175.34 76 175.34 74.8C175.167 73.9067 175.02 71.9667 174.9 68.98H174.54C173.287 68.9 172.66 68.6067 172.66 68.1C172.66 67.9533 172.8 67.7733 173.08 67.56H173.28L174.2 67.8H174.84L174.66 65.3C174.66 64.34 174.907 63.86 175.4 63.86Z" fill="white"/>
<path d="M183.35 68.46C184.336 68.46 185.083 69.1933 185.59 70.66L185.67 71.08C185.67 72.5067 185.003 73.9667 183.67 75.46C183.136 75.9533 182.596 76.2 182.05 76.2C181.25 76.2 180.683 75.74 180.35 74.82C180.23 74.3933 180.17 74.02 180.17 73.7V73.46C180.17 71.3533 180.936 69.7533 182.47 68.66C182.736 68.5267 183.03 68.46 183.35 68.46ZM181.35 73.66C181.35 74.5667 181.583 75.02 182.05 75.02C183.023 75.02 183.83 73.7733 184.47 71.28V70.9C184.243 70.0733 183.823 69.66 183.21 69.66C182.97 69.66 182.85 69.8267 182.85 70.16C182.85 70.3867 182.583 70.5667 182.05 70.7C181.583 71.4867 181.35 72.4733 181.35 73.66Z" fill="white"/>
<path d="M189.196 68.12C190.036 68.12 190.536 68.7067 190.696 69.88V70.06C190.696 71.3533 190.029 72.54 188.696 73.62C189.469 74.38 190.822 74.76 192.756 74.76C193.049 74.8533 193.196 75.06 193.196 75.38C193.196 75.74 192.962 75.92 192.496 75.92C191.189 75.92 189.816 75.5867 188.376 74.92V75.5C188.376 76.8733 188.082 77.56 187.496 77.56C187.082 77.56 186.876 76.7667 186.876 75.18V73.62L186.816 73.06L186.956 72.42L186.816 70.5V70.42C186.816 70.06 187.002 69.8133 187.376 69.68C187.896 68.64 188.502 68.12 189.196 68.12ZM188.196 72.5C188.582 72.5 189.016 71.8067 189.496 70.42V69.56L189.256 69.3H189.076C188.489 69.7 188.196 70.7667 188.196 72.5Z" fill="white"/>
</svg>
